<svg width="122" height="110" viewBox="0 0 122 110" fill="none" xmlns="http://www.w3.org/2000/svg">
<path fill-rule="evenodd" clip-rule="evenodd" d="M25.4843 15.0567C23.0379 15.0567 21.0547 17.0399 21.0547 19.4863V29.835H41.7522V19.4863C41.7522 17.0399 39.769 15.0567 37.3226 15.0567H25.4843ZM18.0757 19.4863C18.0757 15.3946 21.3926 12.0776 25.4843 12.0776H37.3226C41.4143 12.0776 44.7312 15.3946 44.7312 19.4863V31.3245C44.7312 32.1472 44.0644 32.8141 43.2417 32.8141H19.5652C18.7426 32.8141 18.0757 32.1472 18.0757 31.3245V19.4863Z" fill="#D2DEEE"/>
<path fill-rule="evenodd" clip-rule="evenodd" d="M31.4055 0.238525C32.2282 0.238525 32.895 0.905402 32.895 1.72804V13.5663C32.895 14.3889 32.2282 15.0558 31.4055 15.0558C30.5829 15.0558 29.916 14.3889 29.916 13.5663V1.72804C29.916 0.905402 30.5829 0.238525 31.4055 0.238525Z" fill="#D2DEEE"/>
<path fill-rule="evenodd" clip-rule="evenodd" d="M13.645 32.814C11.1986 32.814 9.21535 34.7972 9.21535 37.2436V108.273C9.21535 109.096 8.54847 109.763 7.72584 109.763C6.9032 109.763 6.23633 109.096 6.23633 108.273V37.2436C6.23633 33.1519 9.55329 29.835 13.645 29.835H49.1598C53.2514 29.835 56.5684 33.1519 56.5684 37.2436V55.001C56.5684 55.8236 55.9015 56.4905 55.0789 56.4905C54.2563 56.4905 53.5894 55.8236 53.5894 55.001V37.2436C53.5894 34.7972 51.6062 32.814 49.1598 32.814H13.645Z" fill="#D2DEEE"/>
<path fill-rule="evenodd" clip-rule="evenodd" d="M80.3119 9.42025C78.9519 8.91053 77.4285 9.09987 76.2346 9.92698C75.0408 10.7541 74.3283 12.1136 74.3277 13.5659C74.3277 13.566 74.3277 13.5658 74.3277 13.5659V54.9998C74.3277 55.8224 73.6608 56.4893 72.8381 56.4893C72.0155 56.4893 71.3486 55.8224 71.3486 54.9998V13.5659C71.3495 11.1367 72.5413 8.86167 74.5381 7.47824C76.5349 6.09481 79.083 5.77818 81.3577 6.63084L110.953 17.7292C113.847 18.8139 115.764 21.5808 115.762 24.6711V108.272C115.762 109.095 115.095 109.762 114.272 109.762C113.449 109.762 112.783 109.095 112.783 108.272V24.6702C112.784 22.8225 111.638 21.1672 109.908 20.5187L80.3119 9.42025Z" fill="#D2DEEE"/>
<path fill-rule="evenodd" clip-rule="evenodd" d="M43.2407 56.4895C40.7943 56.4895 38.8111 58.4727 38.8111 60.9191V108.272C38.8111 109.095 38.1442 109.762 37.3215 109.762C36.4989 109.762 35.832 109.095 35.832 108.272V60.9191C35.832 56.8275 39.149 53.5105 43.2407 53.5105H78.7554C82.8471 53.5105 86.164 56.8275 86.164 60.9191V108.272C86.164 109.095 85.4972 109.762 84.6745 109.762C83.8519 109.762 83.185 109.095 83.185 108.272V60.9191C83.185 58.4727 81.2018 56.4895 78.7554 56.4895H43.2407Z" fill="#D2DEEE"/>
<path fill-rule="evenodd" clip-rule="evenodd" d="M50.6289 88.74C50.6289 87.9174 51.2958 87.2505 52.1184 87.2505H69.8758C70.6985 87.2505 71.3653 87.9174 71.3653 88.74C71.3653 89.5626 70.6985 90.2295 69.8758 90.2295H52.1184C51.2958 90.2295 50.6289 89.5626 50.6289 88.74Z" fill="#D2DEEE"/>
<path fill-rule="evenodd" clip-rule="evenodd" d="M50.6289 72.7583C50.6289 71.9357 51.2958 71.2688 52.1184 71.2688H69.8758C70.6985 71.2688 71.3653 71.9357 71.3653 72.7583C71.3653 73.5809 70.6985 74.2478 69.8758 74.2478H52.1184C51.2958 74.2478 50.6289 73.5809 50.6289 72.7583Z" fill="#D2DEEE"/>
<path fill-rule="evenodd" clip-rule="evenodd" d="M0.320312 108.272C0.320312 107.45 0.987189 106.783 1.80982 106.783H120.192C121.015 106.783 121.682 107.45 121.682 108.272C121.682 109.095 121.015 109.762 120.192 109.762H1.80982C0.987189 109.762 0.320312 109.095 0.320312 108.272Z" fill="#D2DEEE"/>
</svg>
