<svg width="134" height="86" viewBox="0 0 134 86" fill="none" xmlns="http://www.w3.org/2000/svg">
<path fill-rule="evenodd" clip-rule="evenodd" d="M117.961 29.4077C113.872 25.3192 107.243 25.3192 103.155 29.4077L102.094 28.3471L103.155 29.4077C99.0662 33.4963 99.0662 40.1251 103.155 44.2137C107.243 48.3023 113.872 48.3023 117.961 44.2137C122.049 40.1251 122.049 33.4963 117.961 29.4077ZM120.081 27.2855C114.821 22.0263 106.293 22.0266 101.033 27.2864C95.7733 32.5465 95.7733 41.0749 101.033 46.335C106.294 51.5952 114.822 51.5952 120.082 46.335C125.342 41.0749 125.342 32.5465 120.082 27.2864C120.082 27.2861 120.081 27.2858 120.081 27.2855Z" fill="#D2DEEE"/>
<path fill-rule="evenodd" clip-rule="evenodd" d="M78.9704 8.04211C72.3586 1.43038 61.6389 1.43039 55.0271 8.0421C48.4154 14.6539 48.4154 25.3736 55.0271 31.9854C61.6389 38.5971 72.3587 38.5971 78.9704 31.9854C85.5818 25.3739 85.5821 14.6549 78.9714 8.04308C78.9711 8.04275 78.9707 8.04243 78.9704 8.04211ZM81.0917 5.92078C73.3084 -1.86251 60.6891 -1.86251 52.9058 5.92078L52.9058 5.92079C45.1225 13.7041 45.1225 26.3234 52.9058 34.1067C60.6892 41.89 73.3084 41.89 81.0917 34.1067C88.875 26.3233 88.875 13.7041 81.0917 5.92078Z" fill="#D2DEEE"/>
<path fill-rule="evenodd" clip-rule="evenodd" d="M30.8455 29.4077C26.757 25.3192 20.1281 25.3192 16.0396 29.4077C11.951 33.4963 11.951 40.1251 16.0396 44.2137C20.1281 48.3023 26.757 48.3023 30.8455 44.2137C34.9341 40.1251 34.9341 33.4963 30.8455 29.4077ZM32.9669 27.2864C27.7067 22.0263 19.1784 22.0263 13.9182 27.2864C8.65811 32.5465 8.65811 41.0749 13.9182 46.335C19.1784 51.5952 27.7067 51.5952 32.9669 46.335C38.227 41.0749 38.227 32.5465 32.9669 27.2864Z" fill="#D2DEEE"/>
<path fill-rule="evenodd" clip-rule="evenodd" d="M111.053 63.1406C111.053 62.3121 111.725 61.6406 112.553 61.6406H117.292C126.292 61.6406 133.584 68.9329 133.584 77.9322V84.4169C133.584 85.2453 132.913 85.9169 132.084 85.9169C131.256 85.9169 130.584 85.2453 130.584 84.4169V77.9322C130.584 70.5897 124.635 64.6406 117.292 64.6406H112.553C111.725 64.6406 111.053 63.969 111.053 63.1406Z" fill="#D2DEEE"/>
<path fill-rule="evenodd" clip-rule="evenodd" d="M16.7082 64.6406C9.36568 64.6406 3.4165 70.5897 3.4165 77.9322V84.4169C3.4165 85.2453 2.74493 85.9169 1.9165 85.9169C1.08808 85.9169 0.416504 85.2453 0.416504 84.4169V77.9322C0.416504 68.9329 7.70883 61.6406 16.7082 61.6406H21.4474C22.2759 61.6406 22.9474 62.3121 22.9474 63.1406C22.9474 63.969 22.2759 64.6406 21.4474 64.6406H16.7082Z" fill="#D2DEEE"/>
<path fill-rule="evenodd" clip-rule="evenodd" d="M33.9058 74.9437C33.9058 62.6783 43.8488 52.7354 56.1141 52.7354H77.8815C90.1469 52.7354 100.09 62.6783 100.09 74.9437V84.4163C100.09 85.2447 99.4183 85.9163 98.5898 85.9163C97.7614 85.9163 97.0898 85.2447 97.0898 84.4163V74.9437C97.0898 64.3352 88.49 55.7354 77.8815 55.7354H56.1141C45.5056 55.7354 36.9058 64.3352 36.9058 74.9437V84.4163C36.9058 85.2447 36.2342 85.9163 35.4058 85.9163C34.5773 85.9163 33.9058 85.2447 33.9058 84.4163V74.9437Z" fill="#D2DEEE"/>
</svg>
